<svg width="780.0542480468749px" height="122px" xmlns="http://www.w3.org/2000/svg" viewBox="-140.02712402343747 14 780.0542480468749 122" style="background: rgba(0, 0, 0, 0);" preserveAspectRatio="xMidYMid"><defs><filter id="editing-vr"><feFlood flood-color="#f00" flood-opacity="0.7" result="c1"></feFlood><feFlood flood-color="#00f" flood-opacity="0.7" result="c3"></feFlood><feComposite operator="in" in="c1" in2="SourceAlpha" result="text-c1"></feComposite><feComposite operator="in" in="c3" in2="SourceAlpha" result="text-c3"></feComposite><feOffset in="text-c1" dx="5" dy="-1" result="text1"></feOffset><feOffset in="text-c3" dx="-5" dy="1" result="text3"></feOffset><feBlend in="SourceGraphic" in2="text1" mode="multiply" result="text4"></feBlend><feBlend in="text4" in2="text3" mode="multiply"></feBlend></filter></defs><g filter="url(#editing-vr)"><g transform="translate(-28.542636930942535, 97.43000030517578)"><path d="M27.84-9.86L27.84-9.86L27.84-9.86Q29.06-8.32 29.06-5.34L29.06-5.34L29.06-5.34Q29.06-2.37 26.78-0.54L26.78-0.54L26.78-0.54Q24.51 1.28 20.54 1.28L20.54 1.28L20.54 1.28Q18.24 1.28 14.66 0.77L14.66 0.77L14.66 0.77Q7.62-0.32 5.60-0.32L5.60-0.32L5.60-0.32Q3.58-0.32 2.75-0.22L2.75-0.22L2.75-0.22Q1.92-0.13 0.58 0L0.58 0L8.32-42.24L22.34-42.24L15.94-7.04L15.94-7.04Q16.77-6.91 17.54-6.91L17.54-6.91L19.14-6.91L19.14-6.91Q24.51-6.91 27.84-9.86ZM34.24-9.47L34.24-9.47L34.24-9.47Q34.24-11.97 34.88-15.17L34.88-15.17L40.06-42.24L54.21-42.24L49.09-14.98L49.09-14.98Q48.51-11.97 48.51-9.76L48.51-9.76L48.51-9.76Q48.51-7.55 49.44-6.40L49.44-6.40L49.44-6.40Q50.37-5.25 52.10-5.25L52.10-5.25L52.10-5.25Q53.82-5.25 54.91-5.70L54.91-5.70L54.91-5.70Q56-6.14 56.90-7.23L56.90-7.23L56.90-7.23Q58.62-9.41 59.71-14.98L59.71-14.98L64.90-42.24L74.56-42.24L69.44-15.04L69.44-15.04Q67.65-5.95 62.72-2.30L62.72-2.30L62.72-2.30Q57.92 1.28 48.45 1.28L48.45 1.28L48.45 1.28Q41.34 1.28 37.57-1.79L37.57-1.79L37.57-1.79Q34.24-4.48 34.24-9.47ZM109.25-13.25L109.25-13.25L109.25-13.25Q110.91-12.03 110.91-9.44L110.91-9.44L110.91-9.44Q110.91-6.85 109.79-5.02L109.79-5.02L109.79-5.02Q108.67-3.20 106.50-1.79L106.50-1.79L106.50-1.79Q101.82 1.22 93.66 1.22L93.66 1.22L93.66 1.22Q85.50 1.22 81.06-3.04L81.06-3.04L81.06-3.04Q76.61-7.30 76.61-14.85L76.61-14.85L76.61-14.85Q76.61-25.54 82.18-33.66L82.18-33.66L82.18-33.66Q86.40-39.68 93.95-42.24L93.95-42.24L93.95-42.24Q97.86-43.52 101.70-43.52L101.70-43.52L101.70-43.52Q105.54-43.52 107.90-43.01L107.90-43.01L107.90-43.01Q110.27-42.50 112.06-41.47L112.06-41.47L112.06-41.47Q115.97-39.23 115.97-35.65L115.97-35.65L115.97-35.65Q115.97-32.38 112.90-29.95L112.90-29.95L112.90-29.95Q110.08-27.78 107.78-27.78L107.78-27.78L107.78-27.78Q105.47-27.78 104.51-28.10L104.51-28.10L104.51-28.10Q104.77-30.40 104.77-31.90L104.77-31.90L104.77-31.90Q104.77-33.41 104.70-34.50L104.70-34.50L104.70-34.50Q104.64-35.58 104.32-36.61L104.32-36.61L104.32-36.61Q103.68-38.98 101.73-38.98L101.73-38.98L101.73-38.98Q99.78-38.98 97.82-37.15L97.82-37.15L97.82-37.15Q95.87-35.33 94.21-32.26L94.21-32.26L94.21-32.26Q90.43-25.28 90.43-17.02L90.43-17.02L90.43-17.02Q90.43-13.06 92.67-10.78L92.67-10.78L92.67-10.78Q94.91-8.51 99.71-8.51L99.71-8.51L99.71-8.51Q103.30-8.51 106.69-10.88L106.69-10.88L106.69-10.88Q108.16-11.90 109.25-13.25ZM129.47 0L115.52 0L123.65-42.24L137.73-42.24L129.47 0ZM167.23 1.28L167.23 1.28L167.23 1.28Q159.04 1.28 158.27-10.37L158.27-10.37L147.26-10.37L147.26-10.37Q145.98-7.42 145.09-4.86L145.09-4.86L143.42 0L134.46 0L154.62-42.24L168.38-42.24L171.07-11.14L171.07-11.14Q171.71-4.42 174.27-2.43L174.27-2.43L174.27-2.43Q172.42 1.28 167.23 1.28ZM152.77-23.17L149.25-15.04L158.08-15.04L157.31-31.49L157.31-33.22L152.77-23.17ZM184.58 0L177.54 0L185.22-42.24L198.98-42.24L208.96-13.18L214.27-42.24L221.38-42.18L213.57 0L198.91 0L189.70-27.97L184.58 0ZM223.94-15.62L223.94-15.62L223.94-15.62Q223.94-27.71 230.21-35.33L230.21-35.33L230.21-35.33Q236.86-43.58 248.45-43.58L248.45-43.58L248.45-43.58Q256.83-43.58 261.06-39.52L261.06-39.52L261.06-39.52Q265.28-35.46 265.28-26.88L265.28-26.88L265.28-26.88Q265.28-13.82 258.62-6.21L258.62-6.21L258.62-6.21Q252.03 1.28 240.96 1.28L240.96 1.28L240.96 1.28Q232.32 1.28 228.13-3.04L228.13-3.04L228.13-3.04Q223.94-7.36 223.94-15.62ZM240.77-28.86L240.77-28.86L240.77-28.86Q237.89-17.34 237.89-8.26L237.89-8.26L237.89-8.26Q237.89-6.08 238.62-4.67L238.62-4.67L238.62-4.67Q239.36-3.26 241.31-3.26L241.31-3.26L241.31-3.26Q243.26-3.26 244.48-4.19L244.48-4.19L244.48-4.19Q245.70-5.12 246.66-7.23L246.66-7.23L246.66-7.23Q248.19-10.69 249.63-18.02L249.63-18.02L249.63-18.02Q251.07-25.34 251.20-28.38L251.20-28.38L251.20-28.38Q251.33-31.42 251.33-33.73L251.33-33.73L251.33-33.73Q251.33-36.03 250.62-37.50L250.62-37.50L250.62-37.50Q249.92-38.98 248.03-38.98L248.03-38.98L248.03-38.98Q246.14-38.98 244.86-37.82L244.86-37.82L244.86-37.82Q242.50-35.65 240.77-28.86ZM280.96-0.32L280.96-0.32L289.02-42.24L289.02-42.24Q296.58-42.88 301.44-42.88L301.44-42.88L301.44-42.88Q306.30-42.88 309.44-42.46L309.44-42.46L309.44-42.46Q312.58-42.05 314.69-40.96L314.69-40.96L314.69-40.96Q318.91-38.91 318.91-33.28L318.91-33.28L318.91-33.28Q318.91-30.02 316.10-27.26L316.10-27.26L316.10-27.26Q313.47-24.77 310.59-24.19L310.59-24.19L310.59-24.19Q313.66-23.68 315.84-21.38L315.84-21.38L315.84-21.38Q318.14-18.94 318.14-15.17L318.14-15.17L318.14-15.17Q318.14-7.87 312.70-3.62L312.70-3.62L312.70-3.62Q307.26 0.64 296.58 0.64L296.58 0.64L296.58 0.64Q289.22 0.64 280.96-0.32ZM298.37-20.61L295.17-4.03L295.17-4.03Q295.74-3.97 295.87-3.97L295.87-3.97L296.45-3.97L296.45-3.97Q301.70-3.97 303.94-7.42L303.94-7.42L303.94-7.42Q305.60-10.11 305.60-15.04L305.60-15.04L305.60-15.04Q305.60-17.66 303.90-19.07L303.90-19.07L303.90-19.07Q302.21-20.48 298.37-20.61L298.37-20.61ZM308.10-33.22L308.10-33.22L308.10-33.22Q308.10-38.53 302.98-38.53L302.98-38.53L302.40-38.53L302.40-38.53Q302.14-38.53 301.76-38.46L301.76-38.46L299.20-24.96L299.84-24.96L299.84-24.96Q308.10-25.15 308.10-33.22ZM350.14 1.28L350.14 1.28L350.14 1.28Q341.95 1.28 341.18-10.37L341.18-10.37L330.18-10.37L330.18-10.37Q328.90-7.42 328.00-4.86L328.00-4.86L326.34 0L317.38 0L337.54-42.24L351.30-42.24L353.98-11.14L353.98-11.14Q354.62-4.42 357.18-2.43L357.18-2.43L357.18-2.43Q355.33 1.28 350.14 1.28ZM335.68-23.17L332.16-15.04L340.99-15.04L340.22-31.49L340.22-33.22L335.68-23.17ZM367.49 0L360.45 0L368.13-42.24L381.89-42.24L391.87-13.18L397.18-42.24L404.29-42.18L396.48 0L381.82 0L372.61-27.97L367.49 0ZM433.22-9.86L433.22-9.86L433.22-9.86Q434.43-8.32 434.43-5.82L434.43-5.82L434.43-5.82Q434.43-2.37 431.87-0.54L431.87-0.54L431.87-0.54Q429.31 1.28 425.28 1.28L425.28 1.28L425.28 1.28Q422.98 1.28 419.46 0.77L419.46 0.77L419.46 0.77Q412.54-0.32 410.43-0.32L410.43-0.32L410.43-0.32Q408.32-0.32 407.49-0.22L407.49-0.22L407.49-0.22Q406.66-0.13 405.31 0L405.31 0L413.18-42.24L440.77-42.24L440.77-42.24Q440.77-38.34 438.88-36.29L438.88-36.29L438.88-36.29Q436.99-34.24 433.28-34.24L433.28-34.24L433.28-34.24Q429.57-34.24 425.79-35.97L425.79-35.97L423.81-24.77L435.20-24.77L435.20-24.77Q435.20-21.38 433.54-19.49L433.54-19.49L433.54-19.49Q431.87-17.60 429.09-17.60L429.09-17.60L429.09-17.60Q426.30-17.60 424.58-18.24L424.58-18.24L424.58-18.24Q422.85-18.88 422.66-19.07L422.66-19.07L420.35-6.98L420.35-6.98Q421.89-6.78 424.77-6.78L424.77-6.78L424.77-6.78Q429.70-6.78 433.22-9.86ZM466.24-20.61L479.17-21.76L479.17-21.76Q474.56-11.65 474.56 0.06L474.56 0.06L474.56 0.06Q472.83 1.28 470.30 1.28L470.30 1.28L470.30 1.28Q467.78 1.28 466.18 0.10L466.18 0.10L466.18 0.10Q464.58-1.09 464.26-2.30L464.26-2.30L464.26-2.30Q462.66-0.64 460.06 0.32L460.06 0.32L460.06 0.32Q457.47 1.28 454.72 1.28L454.72 1.28L454.72 1.28Q451.97 1.28 449.57 0.38L449.57 0.38L449.57 0.38Q447.17-0.51 445.31-2.50L445.31-2.50L445.31-2.50Q441.22-6.85 441.22-15.10L441.22-15.10L441.22-15.10Q441.22-27.90 448.06-35.58L448.06-35.58L448.06-35.58Q455.10-43.52 467.58-43.52L467.58-43.52L467.58-43.52Q476.22-43.52 479.30-39.04L479.30-39.04L479.30-39.04Q480.26-37.63 480.26-35.94L480.26-35.94L480.26-35.94Q480.26-34.24 479.52-32.80L479.52-32.80L479.52-32.80Q478.78-31.36 477.63-30.21L477.63-30.21L477.63-30.21Q474.88-27.65 471.49-27.65L471.49-27.65L471.49-27.65Q470.14-27.65 468.86-28.10L468.86-28.10L468.86-28.10Q469.12-30.02 469.12-32.26L469.12-32.26L469.12-32.26Q469.12-34.50 468.96-35.52L468.96-35.52L468.96-35.52Q468.80-36.54 468.42-37.38L468.42-37.38L468.42-37.38Q467.58-39.10 465.76-39.10L465.76-39.10L465.76-39.10Q463.94-39.10 461.92-37.15L461.92-37.15L461.92-37.15Q459.90-35.20 458.30-32L458.30-32L458.30-32Q454.78-24.83 454.78-16.19L454.78-16.19L454.78-16.19Q454.78-12.22 456.32-9.41L456.32-9.41L456.32-9.41Q457.98-6.34 460.93-6.34L460.93-6.34L460.93-6.34Q461.95-6.34 462.88-6.85L462.88-6.85L462.88-6.85Q463.81-7.36 464.19-7.74L464.19-7.74L466.24-20.61ZM510.40 1.28L510.40 1.28L510.40 1.28Q502.21 1.28 501.44-10.37L501.44-10.37L490.43-10.37L490.43-10.37Q489.15-7.42 488.26-4.86L488.26-4.86L486.59 0L477.63 0L497.79-42.24L511.55-42.24L514.24-11.14L514.24-11.14Q514.88-4.42 517.44-2.43L517.44-2.43L517.44-2.43Q515.58 1.28 510.40 1.28ZM495.94-23.17L492.42-15.04L501.25-15.04L500.48-31.49L500.48-33.22L495.94-23.17ZM546.11-29.57L546.11-29.57L546.11-29.57Q547.07-31.49 547.07-33.28L547.07-33.28L547.07-33.28Q547.07-35.07 546.88-36.06L546.88-36.06L546.88-36.06Q546.69-37.06 546.24-37.82L546.24-37.82L546.24-37.82Q545.28-39.49 543.36-39.49L543.36-39.49L543.36-39.49Q540.99-39.49 539.07-37.76L539.07-37.76L539.07-37.76Q537.02-35.97 537.02-33.15L537.02-33.15L537.02-33.15Q537.02-31.36 538.27-29.98L538.27-29.98L538.27-29.98Q539.52-28.61 541.44-27.33L541.44-27.33L541.44-27.33Q543.36-26.05 545.54-24.77L545.54-24.77L545.54-24.77Q547.71-23.49 549.63-21.95L549.63-21.95L549.63-21.95Q554.05-18.43 554.05-13.70L554.05-13.70L554.05-13.70Q554.05-10.50 552.35-7.78L552.35-7.78L552.35-7.78Q550.66-5.06 547.84-3.07L547.84-3.07L547.84-3.07Q541.70 1.28 533.57 1.28L533.57 1.28L533.57 1.28Q526.98 1.28 523.58-0.86L523.58-0.86L523.58-0.86Q520.19-3.01 520.19-6.27L520.19-6.27L520.19-6.27Q520.19-12.10 524.74-13.57L524.74-13.57L524.74-13.57Q526.02-14.02 527.97-14.02L527.97-14.02L527.97-14.02Q529.92-14.02 532.16-13.18L532.16-13.18L532.16-13.18Q531.14-10.56 531.14-8.19L531.14-8.19L531.14-8.19Q531.14-3.07 534.78-3.07L534.78-3.07L534.78-3.07Q537.15-3.07 539.10-4.80L539.10-4.80L539.10-4.80Q541.06-6.53 541.06-8.48L541.06-8.48L541.06-8.48Q541.06-10.43 539.81-11.84L539.81-11.84L539.81-11.84Q538.56-13.25 536.70-14.37L536.70-14.37L536.70-14.37Q534.85-15.49 532.70-16.58L532.70-16.58L532.70-16.58Q530.56-17.66 528.70-19.20L528.70-19.20L528.70-19.20Q524.35-22.72 524.35-28.35L524.35-28.35L524.35-28.35Q524.35-32 526.14-34.85L526.14-34.85L526.14-34.85Q527.94-37.70 530.82-39.62L530.82-39.62L530.82-39.62Q536.58-43.52 543.65-43.52L543.65-43.52L543.65-43.52Q550.72-43.52 554.14-41.41L554.14-41.41L554.14-41.41Q557.57-39.30 557.57-35.71L557.57-35.71L557.57-35.71Q557.57-32.58 555.14-30.59L555.14-30.59L555.14-30.59Q553.02-28.93 550.46-28.93L550.46-28.93L550.46-28.93Q547.90-28.93 546.11-29.57Z" fill="#444"></path></g></g><style>text {
  font-size: 64px;
  font-family: Arial Black;
  dominant-baseline: central;
  text-anchor: middle;
}</style></svg>